<svg width="50" height="50" viewBox="0 0 50 50" fill="none" xmlns="http://www.w3.org/2000/svg">
<path d="M43.7502 20.8333V18.75H41.6668V14.5833H43.7502V10.4167H41.6668V8.33333H39.5835V6.25H35.4168V8.33333H31.2502V6.25H29.1668V2.08333H20.8335V6.25H18.7502V8.33333H14.5835V6.25H10.4168V8.33333H8.3335V10.4167H6.25016V14.5833H8.3335V18.75H6.25016V20.8333H2.0835V29.1667H6.25016V31.25H8.3335V35.4167H6.25016V39.5833H8.3335V41.6667H10.4168V43.75H14.5835V41.6667H18.7502V43.75H20.8335V47.9167H29.1668V43.75H31.2502V41.6667H35.4168V43.75H39.5835V41.6667H41.6668V39.5833H43.7502V35.4167H41.6668V31.25H43.7502V29.1667H47.9168V20.8333H43.7502ZM20.8335 20.8333V18.75H29.1668V20.8333H31.2502V29.1667H29.1668V31.25H20.8335V29.1667H18.7502V20.8333H20.8335Z" fill="white"/>
</svg>
