<svg width="50" height="50" viewBox="0 0 50 50" fill="none" xmlns="http://www.w3.org/2000/svg">
<g clip-path="url(#clip0_193_410)">
<path d="M45.8335 18.75V14.5833H43.7502V10.4167H41.6668V8.33333H39.5835V6.25H35.4168V4.16667H31.2502V2.08333H18.7502V4.16667H14.5835V6.25H10.4168V8.33333H8.3335V10.4167H6.25016V14.5833H4.16683V18.75H2.0835V31.25H4.16683V35.4167H6.25016V39.5833H8.3335V41.6667H10.4168V43.75H14.5835V45.8333H18.7502V47.9167H31.2502V45.8333H35.4168V43.75H39.5835V41.6667H41.6668V39.5833H43.7502V35.4167H45.8335V31.25H47.9168V18.75H45.8335ZM22.9168 12.5H27.0835V16.6667H22.9168V12.5ZM20.8335 31.25H22.9168V20.8333H20.8335V18.75H27.0835V31.25H29.1668V35.4167H20.8335V31.25Z" fill="white"/>
</g>
<defs>
<clipPath id="clip0_193_410">
<rect width="50" height="50" fill="white"/>
</clipPath>
</defs>
</svg>
